<svg width="206" height="206" viewBox="0 0 206 206" fill="none" xmlns="http://www.w3.org/2000/svg">
<path d="M93.2094 195.209C93.2964 194.109 93.9961 193.378 95.4157 193.49L97.4255 193.649L97.1317 197.365L95.122 197.206C93.7024 197.094 93.1211 196.326 93.2094 195.209ZM98.8328 198.992L99.7089 187.907L97.8906 187.763L97.5402 192.197L96.1525 192.087L93.9509 187.452L91.7817 187.28L94.1621 192.091C92.2593 192.406 91.4466 193.754 91.3432 195.062C91.2008 196.864 92.373 198.482 95.0048 198.689L98.8328 198.992Z" fill="#4361EE"/>
<path d="M81.57 192.813C80.2447 192.508 79.3939 191.426 79.6678 190.093L84.4234 191.188C83.924 192.502 82.7706 193.09 81.57 192.813ZM78.6242 187.21L80.5421 187.651C81.0239 187.056 81.754 186.666 82.8454 186.917C84.1552 187.219 84.9712 188.31 84.7693 189.757L78.205 188.246C78.09 188.531 78.0098 188.808 77.9416 189.105C77.36 191.631 78.6995 193.729 81.1474 194.292C83.6889 194.877 85.8337 193.549 86.4548 190.851C87.0758 188.154 85.6536 185.988 83.1901 185.42C81.0852 184.936 79.4522 185.824 78.6242 187.21Z" fill="#4361EE"/>
<path d="M74.1029 187.656C75.0959 185.124 74.0664 182.709 71.9363 181.874C70.5659 181.336 69.3258 181.606 68.5299 182.102L69.0089 180.88L67.2959 180.209L64.0773 188.416L65.7903 189.088L66.2576 187.896C66.5012 188.765 67.1975 189.794 68.5828 190.338C70.7426 191.185 73.1098 190.188 74.1029 187.656ZM67.3967 184.992C68.0918 183.219 69.6897 182.694 70.9707 183.197C72.2368 183.693 73.0552 185.2 72.3601 186.972C71.665 188.745 70.0697 189.219 68.8036 188.723C67.5225 188.22 66.7074 186.749 67.3967 184.992Z" fill="#4361EE"/>
<path d="M63.2379 178.041L61.6349 177.171L55.9858 187.576L57.5888 188.447L63.2379 178.041Z" fill="#4361EE"/>
<path d="M37.8869 173.726L42.5597 177.716L49.79 169.246L45.1172 165.257L44.1511 166.389L47.4367 169.194L45.2239 171.786L42.3034 169.292L41.3373 170.424L44.2578 172.917L42.1386 175.4L38.853 172.595L37.8869 173.726Z" fill="#4361EE"/>
<path d="M35.2341 158.348C32.9276 160.545 36.9882 163.587 35.666 164.773C35.2253 165.168 34.5856 165.054 33.934 164.328C33.2718 163.589 33.2696 162.796 33.7987 162.235L32.581 160.877C31.3347 162.124 31.4125 163.816 32.7478 165.305C34.1364 166.854 35.8581 167.072 36.9063 166.132C39.3126 163.975 35.1558 160.825 36.4423 159.671C36.895 159.265 37.6024 159.383 38.3074 160.169C38.9804 160.92 38.9989 161.827 38.5056 162.356L39.7661 163.761C40.9039 162.634 40.8396 160.693 39.4296 159.12C38.041 157.572 36.3419 157.354 35.2341 158.348Z" fill="#4361EE"/>
<path d="M32.0397 154.023C33.5063 152.993 33.4824 151.818 32.5814 150.534L31.754 149.356L30.51 150.229L31.1535 151.146C31.5948 151.774 31.5193 152.14 30.9824 152.517L26.9884 155.321L25.7565 153.566L24.5387 154.421L25.7706 156.176L23.9766 157.436L25.0338 158.942L26.8278 157.682L27.4254 158.533L28.6433 157.678L28.0457 156.827L32.0397 154.023Z" fill="#4361EE"/>
<path d="M25.7112 148.112C28.1192 146.847 28.9207 144.347 27.8566 142.322C27.1721 141.019 26.0577 140.411 25.1316 140.265L26.2931 139.655L25.4374 138.026L17.6327 142.126L18.4884 143.755L19.6216 143.16C19.2372 143.976 19.0902 145.21 19.7822 146.527C20.8611 148.581 23.3033 149.377 25.7112 148.112ZM22.3837 141.709C24.0692 140.823 25.621 141.472 26.2609 142.69C26.8934 143.894 26.5262 145.569 24.8406 146.455C23.1551 147.34 21.6384 146.655 21.0059 145.451C20.366 144.233 20.7123 142.587 22.3837 141.709Z" fill="#4361EE"/>
<path d="M21.3932 134.332C23.0733 133.709 23.3488 132.566 22.8034 131.096L22.3024 129.745L20.8774 130.274L21.267 131.324C21.5341 132.044 21.3682 132.379 20.7532 132.607L16.1779 134.305L15.4321 132.295L14.0371 132.812L14.7829 134.822L12.7278 135.585L13.3679 137.31L15.423 136.547L15.7847 137.522L17.1798 137.005L16.818 136.03L21.3932 134.332Z" fill="#4361EE"/>
<path d="M12.904 123.485C12.5917 122.161 13.1865 120.919 14.5029 120.576L15.6232 125.326C14.2243 125.458 13.1868 124.684 12.904 123.485ZM16.628 118.365L17.0799 120.28C17.8266 120.45 18.4994 120.932 18.7565 122.022C19.065 123.33 18.4473 124.544 17.0596 125.003L15.5131 118.447C15.2062 118.47 14.9222 118.521 14.6264 118.591C12.1036 119.186 10.8139 121.315 11.3906 123.76C11.9894 126.298 14.1293 127.634 16.8234 126.999C19.5175 126.363 20.8318 124.13 20.2515 121.669C19.7556 119.567 18.2369 118.495 16.628 118.365Z" fill="#4361EE"/>
<path d="M14.8964 97.9261C10.8324 97.9011 12.3642 103.799 9.85229 103.783C8.78031 103.777 8.27333 102.957 8.31182 101.902C8.3509 100.75 9.04292 100.098 9.79529 100.039L9.80768 98.0228C7.90273 98.1711 6.77351 99.6682 6.76044 101.796C6.74648 104.068 7.95293 105.628 9.90489 105.64C14.0008 105.665 12.2931 99.7501 14.9811 99.7666C15.925 99.7724 16.6086 100.497 16.6007 101.777C16.593 103.041 15.8531 103.676 14.9406 103.75L14.9286 105.702C16.8966 105.715 18.1231 104.01 18.1367 101.786C18.152 99.3061 16.5603 97.9363 14.8964 97.9261Z" fill="#4361EE"/>
<path d="M18.5688 93.2591L18.7963 91.4493L10.0491 90.3499L9.82162 92.1596L18.5688 93.2591ZM8.77847 91.0932C8.85828 90.4582 8.41413 89.8863 7.76326 89.8045C7.11238 89.7227 6.54052 90.1669 6.46071 90.8019C6.37889 91.4528 6.82304 92.0246 7.47392 92.1064C8.1248 92.1882 8.69666 91.7441 8.77847 91.0932Z" fill="#4361EE"/>
<path d="M21.3248 79.315L21.7698 77.5627L16.7298 76.2828C14.3416 75.6763 12.7034 76.8616 12.1954 78.8621C11.9355 79.8856 12.114 80.9379 12.6661 81.6889L11.6891 81.4408L11.2402 83.2087L19.785 85.3786L20.2339 83.6107L15.4575 82.3977C13.8912 82 13.3014 80.9423 13.6322 79.6396C13.9591 78.3525 14.9821 77.7043 16.5484 78.1021L21.3248 79.315Z" fill="#4361EE"/>
<path d="M19.1227 71.8173C21.6764 72.8853 24.021 71.9235 24.9964 69.5913C25.8298 67.5985 25.266 65.8366 23.8632 64.7122L23.1039 66.5278C23.8156 67.1897 23.9992 67.9949 23.5794 68.9986C23.0114 70.3566 21.6311 70.8373 19.845 70.0903C18.0737 69.3495 17.4465 68.0293 18.0145 66.6712C18.4342 65.6675 19.2078 65.2279 20.1074 65.2746L20.8667 63.459C18.9631 63.2005 17.4308 64.0859 16.5974 66.0786C15.622 68.4108 16.5838 70.7555 19.1227 71.8173Z" fill="#4361EE"/>
<path d="M24.0361 54.9602C24.7339 53.7929 26.0256 53.3161 27.2093 53.9864L24.7054 58.1751C23.6091 57.2961 23.404 56.0177 24.0361 54.9602ZM30.2742 53.8799L29.2644 55.5691C29.6825 56.2105 29.8293 57.0253 29.2546 57.9866C28.565 59.1402 27.276 59.5813 25.9606 58.9441L29.4169 53.1624C29.1806 52.9652 28.9416 52.8037 28.6807 52.6477C26.4559 51.3178 24.0477 51.9473 22.7588 54.1034C21.4206 56.342 22.0255 58.7914 24.4014 60.2116C26.7772 61.6319 29.2759 60.9446 30.573 58.7747C31.6813 56.9207 31.3381 55.0938 30.2742 53.8799Z" fill="#4361EE"/>
<path d="M39.8722 45.7303L45.3219 40.1835L44.2377 39.1182L40.683 42.7362C40.7738 40.201 41.2515 36.6328 39.2314 34.648C37.7363 33.1791 35.7786 33.1398 34.119 34.8289C32.6724 36.3012 32.4075 38.3287 34.1659 40.1461L35.3994 38.8907C34.4971 37.937 34.3402 36.8182 35.2373 35.9052C36.1904 34.9351 37.1539 35.1416 38.0213 35.9938C39.6534 37.5973 39.1303 41.1433 38.9249 44.7995L39.8722 45.7303Z" fill="#4361EE"/>
<path d="M45.2303 32.6023C47.2744 35.3092 49.5322 36.8122 52.1369 34.8452C54.7417 32.8782 53.914 30.2953 51.8699 27.5884C49.8643 24.9326 47.6066 23.4296 45.0018 25.3966C42.3971 27.3636 43.2248 29.9465 45.2303 32.6023ZM50.4398 28.6683C51.8186 30.4942 52.8323 32.2349 51.1342 33.5173C49.436 34.7997 48.0392 33.3483 46.6604 31.5224C45.3491 29.7859 44.3064 28.0069 46.0046 26.7245C47.7028 25.4421 49.1285 26.9318 50.4398 28.6683Z" fill="#4361EE"/>
<path d="M59.2235 29.8635L66.05 26.1399L65.3221 24.8055L60.8694 27.2343C61.693 24.8349 63.187 21.5596 61.8309 19.0734C60.8272 17.2333 58.9654 16.6268 56.8866 17.7607C55.0746 18.7491 54.2318 20.6122 55.3862 22.8621L56.9313 22.0193C56.3452 20.8445 56.5201 19.7285 57.6438 19.1155C58.8377 18.4643 59.6997 18.9419 60.282 20.0094C61.3776 22.018 59.8466 25.2589 58.5876 28.6977L59.2235 29.8635Z" fill="#4361EE"/>
<path d="M70.0601 24.386L77.3466 21.6708L76.8159 20.2465L72.0631 22.0175C73.2195 19.7596 75.1641 16.7299 74.1752 14.0762C73.4434 12.1121 71.6867 11.247 69.4678 12.0738C67.5337 12.7945 66.4346 14.5188 67.2573 16.9101L68.9065 16.2955C68.4934 15.0493 68.8252 13.9695 70.0247 13.5226C71.2991 13.0477 72.0844 13.643 72.5089 14.7824C73.3078 16.9264 71.3316 19.9167 69.5964 23.1415L70.0601 24.386Z" fill="#4361EE"/>
<path d="M89.4872 13.9469L96.0167 13.1669L95.8345 11.6417L89.305 12.4217L89.4872 13.9469Z" fill="#4361EE"/>
<path d="M116.849 11.2196C116.713 12.3151 115.981 13.0142 114.568 12.8386L112.567 12.5899L113.027 8.89039L115.027 9.13904C116.441 9.31467 116.987 10.1081 116.849 11.2196ZM111.4 7.18879L110.029 18.2239L111.839 18.4489L112.388 14.0348L113.769 14.2065L115.761 18.9363L117.92 19.2047L115.757 14.2924C117.672 14.0628 118.545 12.7524 118.707 11.4504C118.929 9.65624 117.831 7.98801 115.211 7.6624L111.4 7.18879Z" fill="#4361EE"/>
<path d="M128.369 14.1342C129.68 14.4984 130.481 15.6179 130.148 16.9368L125.446 15.6301C126.004 14.3403 127.182 13.8043 128.369 14.1342ZM131.061 19.8643L129.165 19.3373C128.657 19.9102 127.91 20.2673 126.831 19.9674C125.536 19.6075 124.77 18.4812 125.036 17.044L131.526 18.8478C131.654 18.5677 131.747 18.2945 131.828 18.0016C132.522 15.5043 131.278 13.3484 128.858 12.6757C126.345 11.9774 124.143 13.2087 123.402 15.8756C122.66 18.5425 123.984 20.7704 126.42 21.4473C128.501 22.0257 130.172 21.2114 131.061 19.8643Z" fill="#4361EE"/>
<path d="M135.598 19.6208C134.493 22.1061 135.413 24.5643 137.504 25.4941C138.848 26.0923 140.099 25.8782 140.917 25.4187L140.384 26.6175L142.065 27.3653L145.648 19.3101L143.966 18.5623L143.446 19.7319C143.242 18.8529 142.592 17.7935 141.233 17.1888C139.113 16.246 136.703 17.1355 135.598 19.6208ZM142.178 22.5826C141.404 24.3223 139.785 24.7751 138.527 24.2159C137.285 23.6632 136.535 22.1213 137.308 20.3816C138.082 18.6419 139.697 18.2395 140.94 18.7922C142.197 19.3514 142.945 20.8576 142.178 22.5826Z" fill="#4361EE"/>
<path d="M146.022 29.7122L147.584 30.6534L153.693 20.5113L152.131 19.5701L146.022 29.7122Z" fill="#4361EE"/>
<path d="M171.154 35.1574L166.665 30.9631L159.062 39.1004L163.552 43.2948L164.568 42.2074L161.411 39.2583L163.737 36.768L166.543 39.3895L167.559 38.3021L164.753 35.6807L166.982 33.2956L170.138 36.2447L171.154 35.1574Z" fill="#4361EE"/>
<path d="M173.116 50.6394C175.518 48.5477 171.598 45.3265 172.972 44.2012C173.43 43.8261 174.064 43.9688 174.682 44.7239C175.311 45.4913 175.277 46.2839 174.724 46.82L175.88 48.2311C177.18 47.0417 177.178 45.3474 175.911 43.8001C174.593 42.191 172.883 41.8957 171.794 42.7879C169.293 44.8357 173.305 48.1682 171.968 49.2631C171.498 49.6484 170.796 49.499 170.127 48.682C169.488 47.9022 169.51 46.9948 170.027 46.4891L168.831 45.0284C167.644 46.1041 167.621 48.0461 168.959 49.68C170.277 51.2892 171.965 51.5822 173.116 50.6394Z" fill="#4361EE"/>
<path d="M176.113 55.1028C174.602 56.0658 174.573 57.2414 175.416 58.5638L176.19 59.7782L177.472 58.9614L176.87 58.0168C176.457 57.3691 176.549 57.0071 177.102 56.6546L181.218 54.0321L182.37 55.8403L183.625 55.0406L182.473 53.2325L184.321 52.0546L183.332 50.5028L181.484 51.6808L180.925 50.8037L179.67 51.6033L180.229 52.4804L176.113 55.1028Z" fill="#4361EE"/>
<path d="M182.171 61.2915C179.709 62.4474 178.796 64.9086 179.768 66.9797C180.394 68.3122 181.48 68.9689 182.399 69.1562L181.211 69.7138L181.993 71.3794L189.973 67.6329L189.191 65.9673L188.033 66.5113C188.453 65.7129 188.655 64.4868 188.023 63.1398C187.037 61.0397 184.633 60.1357 182.171 61.2915ZM185.208 67.8372C183.485 68.6463 181.964 67.9287 181.379 66.6831C180.801 65.452 181.243 63.7952 182.966 62.9861C184.69 62.177 186.174 62.9295 186.752 64.1605C187.337 65.4061 186.917 67.0348 185.208 67.8372Z" fill="#4361EE"/>
<path d="M185.868 75.2506C184.161 75.7982 183.835 76.9279 184.314 78.4209L184.754 79.7921L186.201 79.3276L185.859 78.2612C185.624 77.5299 185.805 77.2031 186.43 77.0026L191.076 75.5116L191.732 77.553L193.148 77.0984L192.493 75.0569L194.58 74.3871L194.018 72.6351L191.931 73.3049L191.613 72.3146L190.196 72.7693L190.514 73.7596L185.868 75.2506Z" fill="#4361EE"/>
<path d="M193.863 86.4672C194.115 87.8036 193.466 89.0174 192.135 89.3015L191.229 84.5065C192.632 84.4365 193.634 85.2567 193.863 86.4672ZM189.913 91.4151L189.548 89.4814C188.809 89.279 188.159 88.767 187.951 87.6665C187.701 86.3459 188.372 85.1605 189.779 84.7642L191.031 91.3829C191.338 91.3736 191.624 91.3359 191.923 91.2794C194.47 90.7978 195.854 88.7288 195.387 86.2605C194.902 83.6979 192.824 82.267 190.105 82.7813C187.385 83.2955 185.972 85.4678 186.441 87.9518C186.843 90.0742 188.312 91.2131 189.913 91.4151Z" fill="#4361EE"/>
<path d="M190.728 111.911C194.787 112.118 193.521 106.158 196.029 106.286C197.1 106.34 197.57 107.181 197.484 108.234C197.394 109.383 196.673 110.003 195.919 110.029L195.816 112.042C197.726 111.979 198.921 110.534 199.029 108.409C199.145 106.14 198.009 104.528 196.06 104.429C191.969 104.22 193.41 110.206 190.726 110.069C189.783 110.021 189.133 109.267 189.198 107.988C189.262 106.726 190.03 106.124 190.945 106.091L191.044 104.141C189.079 104.041 187.777 105.689 187.664 107.91C187.538 110.387 189.066 111.826 190.728 111.911Z" fill="#4361EE"/>
<path d="M186.85 116.409L186.542 118.207L195.231 119.697L195.54 117.899L186.85 116.409ZM196.534 119.011C196.426 119.642 196.844 120.233 197.491 120.344C198.137 120.455 198.728 120.037 198.836 119.406C198.947 118.759 198.529 118.168 197.883 118.057C197.236 117.946 196.645 118.365 196.534 119.011Z" fill="#4361EE"/>
<path d="M183.473 130.216L182.95 131.947L187.928 133.451C190.286 134.164 191.976 133.053 192.573 131.077C192.878 130.066 192.747 129.007 192.229 128.232L193.194 128.524L193.722 126.778L185.283 124.227L184.755 125.973L189.472 127.399C191.019 127.866 191.561 128.949 191.172 130.236C190.788 131.507 189.737 132.109 188.19 131.641L183.473 130.216Z" fill="#4361EE"/>
<path d="M185.337 137.804C182.834 136.623 180.449 137.479 179.37 139.765C178.448 141.719 178.932 143.504 180.283 144.69L181.123 142.91C180.442 142.217 180.294 141.405 180.759 140.421C181.387 139.09 182.787 138.671 184.538 139.497C186.275 140.317 186.842 141.664 186.214 142.995C185.75 143.979 184.957 144.383 184.061 144.296L183.221 146.076C185.111 146.42 186.681 145.604 187.603 143.65C188.682 141.364 187.826 138.979 185.337 137.804Z" fill="#4361EE"/>
<path d="M179.674 154.425C178.925 155.56 177.613 155.978 176.46 155.256L179.149 151.183C180.205 152.11 180.353 153.397 179.674 154.425ZM173.394 155.225L174.478 153.582C174.089 152.923 173.979 152.102 174.596 151.168C175.337 150.046 176.644 149.663 177.93 150.359L174.218 155.98C174.445 156.187 174.677 156.36 174.931 156.527C177.094 157.955 179.528 157.434 180.912 155.338C182.349 153.162 181.854 150.687 179.544 149.162C177.234 147.637 174.707 148.212 173.315 150.321C172.124 152.124 172.385 153.964 173.394 155.225Z" fill="#4361EE"/>
<path d="M163.441 162.936L157.748 168.234L158.784 169.346L162.497 165.891C162.292 168.42 161.655 171.963 163.585 174.036C165.013 175.571 166.967 175.698 168.7 174.084C170.211 172.678 170.567 170.665 168.891 168.77L167.603 169.969C168.461 170.963 168.568 172.087 167.631 172.959C166.636 173.886 165.682 173.636 164.854 172.746C163.295 171.071 163.977 167.552 164.345 163.909L163.441 162.936Z" fill="#4361EE"/>
<path d="M157.5 175.811C155.579 173.016 153.391 171.413 150.701 173.262C148.011 175.11 148.722 177.727 150.643 180.523C152.527 183.266 154.716 184.868 157.406 183.02C160.096 181.172 159.385 178.554 157.5 175.811ZM152.12 179.508C150.824 177.622 149.889 175.838 151.643 174.633C153.397 173.428 154.728 174.94 156.023 176.826C157.256 178.62 158.217 180.444 156.464 181.649C154.71 182.854 153.352 181.302 152.12 179.508Z" fill="#4361EE"/>
<path d="M143.399 177.921L136.412 181.335L137.08 182.701L141.637 180.474C140.706 182.834 139.067 186.039 140.311 188.584C141.231 190.467 143.064 191.156 145.191 190.116C147.046 189.21 147.971 187.387 146.919 185.087L145.337 185.86C145.87 187.06 145.645 188.167 144.495 188.729C143.274 189.326 142.434 188.81 141.9 187.718C140.895 185.662 142.57 182.493 143.982 179.114L143.399 177.921Z" fill="#4361EE"/>
<path d="M132.328 182.908L124.927 185.294L125.393 186.741L130.22 185.184C128.964 187.388 126.886 190.328 127.755 193.023C128.398 195.018 130.114 195.961 132.368 195.234C134.332 194.601 135.508 192.928 134.793 190.502L133.118 191.042C133.475 192.305 133.095 193.369 131.877 193.762C130.582 194.179 129.824 193.55 129.451 192.392C128.749 190.215 130.857 187.316 132.735 184.172L132.328 182.908Z" fill="#4361EE"/>
<path d="M112.453 192.467L105.895 192.954L106.008 194.486L112.566 193.999L112.453 192.467Z" fill="#4361EE"/>
</svg>
